# xmcd CD database file
#
# Track frame offsets:
#	150
#	18829
#	46271
#	77718
#	101313
#	118811
#	138166
#
# Disc length: 2104 seconds
#
# Revision: 1
# Processed by: cddbd v1.4PL0 Copyright (c) Steve Scherf et al.
# Submitted via: CDex 1.40Release
#
DISCID=4b083607
DTITLE=The Reid Project Featuring Butterscotch - Scotch and Water
DYEAR=2002
DGENRE=Blues
TTITLE0=Breakin Up Somebody's Home
TTITLE1=Give Me One Reason To Stay
TTITLE2=Misty
TTITLE3=Stoop Down Baby
TTITLE4=Sweet Thing
TTITLE5=Flamin Mamie
TTITLE6=What a Difference a Day Makes
EXTD=YEAR: 2002 ID3G: 0
EXTT0=
EXTT1=
EXTT2=
EXTT3=
EXTT4=
EXTT5=
EXTT6=
PLAYORDER=
